<?xml version="1.0" encoding="utf-8"?>
<!-- Generator: Adobe Illustrator 28.2.0, SVG Export Plug-In . SVG Version: 6.00 Build 0)  -->
<svg version="1.1" id="Layer_1" xmlns="http://www.w3.org/2000/svg" xmlns:xlink="http://www.w3.org/1999/xlink" x="0px" y="0px"
	 viewBox="0 0 14.3 13.3" style="enable-background:new 0 0 14.3 13.3;" xml:space="preserve">
<style type="text/css">
	.st0{fill-rule:evenodd;clip-rule:evenodd;}
</style>
<path class="st0" d="M10.2,2.5C9.7,2,8.9,2,8.4,2.5L3.5,7.2c-0.2,0.2-0.4,0.2-0.6,0c-0.2-0.2-0.2-0.4,0-0.6c0,0,0,0,0,0l4.8-4.7
	c0.8-0.8,2.2-0.8,3,0c0.5,0.5,0.7,1.1,0.6,1.8c0.7-0.1,1.3,0.1,1.8,0.6l0,0c0.8,0.8,0.8,2.1,0,2.9c0,0,0,0,0,0l-4.4,4.3
	c-0.1,0.1-0.1,0.1,0,0.2c0,0,0,0,0,0l0.9,0.9c0.2,0.2,0.2,0.4,0,0.6c0,0,0,0,0,0c-0.2,0.2-0.4,0.2-0.6,0l-0.9-0.9
	c-0.4-0.4-0.4-1,0-1.4c0,0,0,0,0,0l4.4-4.3c0.5-0.5,0.5-1.3,0-1.7c0,0,0,0,0,0l0,0c-0.5-0.5-1.3-0.5-1.8,0L7.2,8.4l0,0l0,0
	C7,8.6,6.7,8.6,6.5,8.4C6.4,8.3,6.4,8,6.5,7.8c0,0,0,0,0,0l3.6-3.6C10.7,3.8,10.7,3,10.2,2.5C10.2,2.5,10.2,2.5,10.2,2.5z"/>
<path class="st0" d="M9.6,3.7c0.2-0.2,0.2-0.4,0-0.6c0,0,0,0,0,0C9.4,2.9,9.1,2.9,9,3.1L5.4,6.6c-0.8,0.8-0.8,2.1,0,2.9c0,0,0,0,0,0
	c0.8,0.8,2.2,0.8,3,0L12,6c0.2-0.2,0.2-0.4,0-0.6c0,0,0,0,0,0c-0.2-0.2-0.4-0.2-0.6,0L7.8,8.9C7.3,9.4,6.5,9.4,6,8.9
	C5.5,8.5,5.5,7.7,6,7.2c0,0,0,0,0,0C6,7.2,9.6,3.7,9.6,3.7z"/>
<path class="st0" d="M2.9,6.6C2.8,6.8,2.8,7,2.9,7.2c0,0,0,0,0,0c0.2,0.2,0.4,0.2,0.6,0l3.6-3.5c0.8-0.8,0.8-2.1,0-2.9c0,0,0,0,0,0
	C6.3,0,4.9,0,4.1,0.8L0.5,4.3c-0.2,0.2-0.2,0.4,0,0.6c0,0,0,0,0,0C0.7,5,1,5,1.1,4.9l3.6-3.5c0.5-0.5,1.3-0.5,1.8,0
	C7,1.8,7,2.6,6.5,3.1c0,0,0,0,0,0C6.5,3.1,2.9,6.6,2.9,6.6z"/>
<rect x="4.3" y="1.7" transform="matrix(0.7071 -0.7071 0.7071 0.7071 -0.7898 4.2313)" class="st0" width="0.8" height="2.7"/>
</svg>
